<?xml version="1.0" standalone="no"?>
<!DOCTYPE svg PUBLIC "-//W3C//DTD SVG 20010904//EN"
 "http://www.w3.org/TR/2001/REC-SVG-20010904/DTD/svg10.dtd">
<svg version="1.0" xmlns="http://www.w3.org/2000/svg"
 width="700.000000pt" height="700.000000pt" viewBox="0 0 700.000000 700.000000"
 preserveAspectRatio="xMidYMid meet">
<metadata>
Created by potrace 1.14, written by Peter Selinger 2001-2017
</metadata>
<g transform="translate(0.000000,700.000000) scale(0.100000,-0.100000)"
fill="#000000" stroke="none">
<path d="M3309 6976 c-2 -2 -47 -7 -99 -10 -52 -3 -104 -8 -115 -10 -11 -2
-45 -7 -75 -11 -237 -30 -583 -124 -819 -222 -686 -283 -1244 -750 -1630
-1361 -108 -173 -102 -163 -177 -312 -125 -249 -234 -556 -285 -795 -7 -33
-14 -64 -15 -70 -17 -76 -37 -195 -49 -305 -26 -222 -26 -586 1 -800 26 -212
109 -585 155 -695 4 -11 19 -52 33 -91 52 -149 132 -326 223 -494 240 -440
599 -843 1020 -1146 337 -242 838 -473 1172 -540 14 -3 28 -7 32 -10 10 -6
243 -51 308 -59 30 -4 63 -9 75 -11 138 -26 657 -26 856 1 131 17 169 24 320
57 498 107 1015 354 1419 677 648 519 1094 1257 1250 2071 21 109 23 124 40
255 24 188 32 496 17 655 -13 135 -17 167 -27 240 -14 100 -15 106 -34 202
-29 143 -114 446 -145 513 -5 11 -30 71 -55 134 -134 333 -352 684 -599 964
-455 517 -1036 877 -1719 1062 -53 14 -107 28 -120 30 -12 3 -33 7 -47 10 -14
3 -36 7 -50 10 -14 3 -36 7 -50 10 -24 4 -57 10 -117 19 -16 3 -57 7 -93 11
-36 4 -78 9 -95 12 -37 6 -501 14 -506 9z"/>
</g>
</svg>
